<svg xmlns:xlink="http://www.w3.org/1999/xlink" height="32" viewBox="0 0 32 32" width="32" xmlns="http://www.w3.org/2000/svg"><defs><linearGradient id="act-c" x1="50%" x2="50%" y1="0%" y2="100%"><stop offset="0%" stop-color="#FFF" stop-opacity=".5"/><stop offset="100%" stop-opacity=".5"/></linearGradient><circle cx="16" cy="15" id="act-b" r="15"/><filter filterUnits="objectBoundingBox" height="111.7%" id="act-a" width="111.7%" x="-5.8%" y="-4.2%"><feOffset dy=".5" in="SourceAlpha" result="shadowOffsetOuter1"/><feGaussianBlur in="shadowOffsetOuter1" result="shadowBlurOuter1" stdDeviation=".5"/><feComposite in="shadowBlurOuter1" in2="SourceAlpha" operator="out" result="shadowBlurOuter1"/><feColorMatrix in="shadowBlurOuter1" values="0 0 0 0 0 0 0 0 0 0 0 0 0 0 0 0 0 0 0.199473505 0"/></filter><path d="M13.7696672,5.5 L18.2303328,5.5 C18.5450175,5.5 18.8351623,5.66997114 18.9890446,5.94446476 L25.8947974,18.2628744 C26.0428893,18.5270392 26.0429192,18.8492152 25.8948764,19.1134075 L23.6859449,23.0553942 C23.5320853,23.3299669 23.2418967,23.5 22.927154,23.5 L9.07284599,23.5 C8.75810335,23.5 8.46791469,23.3299669 8.31405514,23.0553942 L6.10512356,19.1134075 C5.95708078,18.8492152 5.95711073,18.5270392 6.1052026,18.2628744 L13.0109554,5.94446476 C13.1648377,5.66997114 13.4549825,5.5 13.7696672,5.5 Z M16,10.4009901 L11.3465603,18.6881188 L20.6534397,18.6881188 L16,10.4009901 Z" id="act-e"/><filter filterUnits="objectBoundingBox" height="119.4%" id="act-d" width="117.5%" x="-8.8%" y="-6.9%"><feOffset dy=".5" in="SourceAlpha" result="shadowOffsetOuter1"/><feGaussianBlur in="shadowOffsetOuter1" result="shadowBlurOuter1" stdDeviation=".5"/><feColorMatrix in="shadowBlurOuter1" values="0 0 0 0 0 0 0 0 0 0 0 0 0 0 0 0 0 0 0.204257246 0"/></filter></defs><g fill="none" fill-rule="evenodd"><g fill-rule="nonzero"><use fill="#000" filter="url(#act-a)" xlink:href="#act-b"/><use fill="#767DFF" fill-rule="evenodd" xlink:href="#act-b"/><use style="mix-blend-mode:soft-light" fill="url(#act-c)" fill-rule="evenodd" xlink:href="#act-b"/><circle cx="16" cy="15" r="14.5" stroke="#000" stroke-opacity=".097"/></g><use fill="#000" filter="url(#act-d)" xlink:href="#act-e"/><use fill="#FFF" xlink:href="#act-e"/></g></svg>