<svg xmlns:xlink="http://www.w3.org/1999/xlink" height="32" viewBox="0 0 32 32" width="32" xmlns="http://www.w3.org/2000/svg"><defs><linearGradient id="gbp-c" x1="50%" x2="50%" y1="0%" y2="100%"><stop offset="0%" stop-color="#FFF" stop-opacity=".5"/><stop offset="100%" stop-opacity=".5"/></linearGradient><circle cx="16" cy="15" id="gbp-b" r="15"/><filter filterUnits="objectBoundingBox" height="111.7%" id="gbp-a" width="111.7%" x="-5.8%" y="-4.2%"><feOffset dy=".5" in="SourceAlpha" result="shadowOffsetOuter1"/><feGaussianBlur in="shadowOffsetOuter1" result="shadowBlurOuter1" stdDeviation=".5"/><feComposite in="shadowBlurOuter1" in2="SourceAlpha" operator="out" result="shadowBlurOuter1"/><feColorMatrix in="shadowBlurOuter1" values="0 0 0 0 0 0 0 0 0 0 0 0 0 0 0 0 0 0 0.199473505 0"/></filter><path d="M11.0867925,13.815493 L11.0867925,11.4830986 C11.0867925,7.80704225 13.3056604,5.5 17.1622642,5.5 C20.0943396,5.5 21.7320755,6.74225352 23,8.33943662 L20.5169811,10.2408451 C19.5660377,9.07464789 18.6679245,8.39014085 17.1886792,8.39014085 C15.4188679,8.39014085 14.3622642,9.60704225 14.3622642,11.5591549 L14.3622642,13.815493 L20.9396226,13.815493 L20.9396226,16.4521127 L14.3622642,16.4521127 L14.3622642,20.7873239 L22.9471698,20.7873239 L22.9471698,23.5 L9,23.5 L9,21.5225352 L11.0867925,20.9140845 L11.0867925,16.4521127 L9,16.4521127 L9,13.815493 L11.0867925,13.815493 Z" id="gbp-e"/><filter filterUnits="objectBoundingBox" height="119.4%" id="gbp-d" width="125%" x="-12.5%" y="-6.9%"><feOffset dy=".5" in="SourceAlpha" result="shadowOffsetOuter1"/><feGaussianBlur in="shadowOffsetOuter1" result="shadowBlurOuter1" stdDeviation=".5"/><feColorMatrix in="shadowBlurOuter1" values="0 0 0 0 0 0 0 0 0 0 0 0 0 0 0 0 0 0 0.204257246 0"/></filter></defs><g fill="none" fill-rule="evenodd"><use fill="#000" filter="url(#gbp-a)" xlink:href="#gbp-b"/><use fill="#BC3FE0" xlink:href="#gbp-b"/><use style="mix-blend-mode:soft-light" fill="url(#gbp-c)" xlink:href="#gbp-b"/><circle cx="16" cy="15" r="14.5" stroke="#000" stroke-opacity=".097"/><g><use fill="#000" filter="url(#gbp-d)" xlink:href="#gbp-e"/><use fill="#FFF" xlink:href="#gbp-e"/></g></g></svg>