<svg xmlns:xlink="http://www.w3.org/1999/xlink" height="32" version="1.1" viewBox="0 0 32 32" width="32" xmlns="http://www.w3.org/2000/svg"><title>icon/neu</title><desc>Created with Sketch.</desc><defs><linearGradient id="linearGradient-1" x1="50%" x2="50%" y1="0%" y2="100%"><stop offset="0%" stop-color="#FFF" stop-opacity=".5"/><stop offset="100%" stop-color="#000" stop-opacity=".5"/></linearGradient><circle cx="15" cy="15" id="path-2" r="15"/><filter filterUnits="objectBoundingBox" height="111.7%" id="filter-3" width="111.7%" x="-5.8%" y="-4.2%"><feOffset dx="0" dy=".5" in="SourceAlpha" result="shadowOffsetOuter1"/><feGaussianBlur in="shadowOffsetOuter1" result="shadowBlurOuter1" stdDeviation=".5"/><feComposite in="shadowBlurOuter1" in2="SourceAlpha" operator="out" result="shadowBlurOuter1"/><feColorMatrix in="shadowBlurOuter1" type="matrix" values="0 0 0 0 0 0 0 0 0 0 0 0 0 0 0 0 0 0 0.199473505 0"/></filter></defs><g fill="none" fill-rule="evenodd" id="icon/neu" stroke="none" stroke-width="1"><g fill-rule="nonzero" id="Group" transform="translate(1.000000, 0.000000)"><g id="Oval"><use fill="#000" fill-opacity="1" filter="url(#filter-3)" xlink:href="#path-2"/><use fill="#B3BA00" fill-rule="evenodd" xlink:href="#path-2"/><use style="mix-blend-mode:soft-light" fill="url(#linearGradient-1)" fill-rule="evenodd" xlink:href="#path-2"/><circle cx="15" cy="15" r="14.5" stroke="#000" stroke-linejoin="square" stroke-opacity=".097" stroke-width="1"/></g></g><g fill="#FFF" fill-rule="nonzero" id="Neumark-(NEU)" transform="translate(5.000000, 4.000000)"><polygon id="Shape" points="8.27260274 6.18561644 8.15205479 6.2609589 13.75 15.1061644 13.75 6.25342466 10.9547945 4.59589041"/><polygon id="Shape" points="8.09178082 15.6109589 10.9547945 17.3136986 13.5691781 15.7616438 8.09178082 7.10479452"/><polygon id="Shape" points="5.59041096 7.77534247 5.59041096 14.1342466 7.5869863 15.3171233 7.5869863 6.59246575"/><polygon id="Shape" points="14.2547945 15.3547945 16.3191781 14.1342466 16.3191781 7.77534247 14.2547945 6.55479452"/><path d="M11,0 C4.92739726,0 0,4.92739726 0,11 C0,17.0726027 4.92739726,22 11,22 C17.0726027,22 22,17.0726027 22,11 C22,4.92739726 17.0726027,0 11,0 Z M10.9547945,17.9842466 L5.01780822,14.4657534 L5.01780822,7.43630137 L10.9547945,3.92534247 L16.8917808,7.43630137 L16.8917808,14.4657534 L10.9547945,17.9842466 Z" id="Shape"/></g></g></svg>