<svg xmlns:xlink="http://www.w3.org/1999/xlink" height="32" version="1.1" viewBox="0 0 32 32" width="32" xmlns="http://www.w3.org/2000/svg"><title>icon/npxs</title><desc>Created with Sketch.</desc><defs><linearGradient id="linearGradient-1" x1="50%" x2="50%" y1="0%" y2="100%"><stop offset="0%" stop-color="#FFF" stop-opacity=".5"/><stop offset="100%" stop-color="#000" stop-opacity=".5"/></linearGradient><circle cx="15" cy="15" id="path-2" r="15"/><filter filterUnits="objectBoundingBox" height="111.7%" id="filter-3" width="111.7%" x="-5.8%" y="-4.2%"><feOffset dx="0" dy=".5" in="SourceAlpha" result="shadowOffsetOuter1"/><feGaussianBlur in="shadowOffsetOuter1" result="shadowBlurOuter1" stdDeviation=".5"/><feComposite in="shadowBlurOuter1" in2="SourceAlpha" operator="out" result="shadowBlurOuter1"/><feColorMatrix in="shadowBlurOuter1" type="matrix" values="0 0 0 0 0 0 0 0 0 0 0 0 0 0 0 0 0 0 0.199473505 0"/></filter></defs><g fill="none" fill-rule="evenodd" id="icon/npxs" stroke="none" stroke-width="1"><g fill-rule="nonzero" id="Group" transform="translate(1.000000, 0.000000)"><g id="Oval"><use fill="#000" fill-opacity="1" filter="url(#filter-3)" xlink:href="#path-2"/><use fill="#F5D100" fill-rule="evenodd" xlink:href="#path-2"/><use style="mix-blend-mode:soft-light" fill="url(#linearGradient-1)" fill-rule="evenodd" xlink:href="#path-2"/><circle cx="15" cy="15" r="14.5" stroke="#000" stroke-linejoin="square" stroke-opacity=".097" stroke-width="1"/></g></g><g fill="#FFF" fill-rule="nonzero" id="Pundi-X-(NPXS)" transform="translate(5.000000, 4.000000)"><path d="M10.9746154,0 C4.92461538,0 0,4.92461538 0,10.9746154 C0,17.0246154 4.92461538,21.9576923 10.9830769,21.9576923 C17.0415385,21.9576923 21.9661538,17.0330769 21.9661538,10.9746154 C21.9661538,4.91615385 17.0330769,0 10.9746154,0 Z M10.9746154,21.1115385 C5.39,21.1115385 0.837692308,16.5676923 0.837692308,10.9746154 C0.846153846,5.39 5.39,0.846153846 10.9746154,0.846153846 C16.5592308,0.846153846 21.1115385,5.39 21.1115385,10.9830769 C21.1115385,16.5676923 16.5676923,21.1115385 10.9746154,21.1115385 Z" id="Shape"/><rect height="6.075" id="Rectangle-path" transform="translate(7.844573, 7.846016) rotate(-45.000000) translate(-7.844573, -7.846016)" width="1.142" x="7.273" y="4.808"/><rect height="6.075" id="Rectangle-path" transform="translate(14.094458, 14.098163) rotate(-45.000000) translate(-14.094458, -14.098163)" width="1.142" x="13.523" y="11.06"/><rect height="1.151" id="Rectangle-path" transform="translate(10.982383, 10.980129) rotate(-45.000000) translate(-10.982383, -10.980129)" width="1.142" x="10.411" y="10.405"/><rect height="1.142" id="Rectangle-path" transform="translate(14.106352, 7.881390) rotate(-45.000000) translate(-14.106352, -7.881390)" width="6.075" x="11.069" y="7.31"/><rect height="1.142" id="Rectangle-path" transform="translate(7.875384, 14.104133) rotate(-45.000000) translate(-7.875384, -14.104133)" width="6.075" x="4.838" y="13.533"/></g></g></svg>