<svg xmlns:xlink="http://www.w3.org/1999/xlink" height="32" version="1.1" viewBox="0 0 32 32" width="32" xmlns="http://www.w3.org/2000/svg"><title>icon/ost</title><desc>Created with Sketch.</desc><defs><linearGradient id="linearGradient-1" x1="50%" x2="50%" y1="0%" y2="100%"><stop offset="0%" stop-color="#FFF" stop-opacity=".5"/><stop offset="100%" stop-color="#000" stop-opacity=".5"/></linearGradient><circle cx="15" cy="15" id="path-2" r="15"/><filter filterUnits="objectBoundingBox" height="111.7%" id="filter-3" width="111.7%" x="-5.8%" y="-4.2%"><feOffset dx="0" dy=".5" in="SourceAlpha" result="shadowOffsetOuter1"/><feGaussianBlur in="shadowOffsetOuter1" result="shadowBlurOuter1" stdDeviation=".5"/><feComposite in="shadowBlurOuter1" in2="SourceAlpha" operator="out" result="shadowBlurOuter1"/><feColorMatrix in="shadowBlurOuter1" type="matrix" values="0 0 0 0 0 0 0 0 0 0 0 0 0 0 0 0 0 0 0.199473505 0"/></filter></defs><g fill="none" fill-rule="evenodd" id="icon/ost" stroke="none" stroke-width="1"><g fill-rule="nonzero" id="Group" transform="translate(1.000000, 0.000000)"><g id="Oval"><use fill="#000" fill-opacity="1" filter="url(#filter-3)" xlink:href="#path-2"/><use fill="#34445B" fill-rule="evenodd" xlink:href="#path-2"/><use style="mix-blend-mode:soft-light" fill="url(#linearGradient-1)" fill-rule="evenodd" xlink:href="#path-2"/><circle cx="15" cy="15" r="14.5" stroke="#000" stroke-linejoin="square" stroke-opacity=".097" stroke-width="1"/></g></g><g fill="#FFF" fill-rule="nonzero" id="OST-(OST)" transform="translate(8.000000, 4.000000)"><path d="M7.81981982,6.31891892 L9.57927928,3.57567568 C10.5378378,3.77747748 11.4774775,3.15945946 11.6792793,2.2009009 C11.8810811,1.24234234 11.2630631,0.302702703 10.3045045,0.100900901 C9.34594595,-0.100900901 8.40630631,0.517117117 8.2045045,1.47567568 C8.0972973,1.97387387 8.21711712,2.4972973 8.51981982,2.9009009 L6.33783784,6.30630631 C2.5036036,6.68468468 -0.29009009,10.0963964 0.0882882883,13.9243243 C0.466666667,17.7522523 3.87837838,20.5522523 7.70630631,20.1738739 C11.5342342,19.7954955 14.3342342,16.3837838 13.9558559,12.5558559 C13.6279279,9.28918919 11.0738739,6.69099099 7.81981982,6.31891892 Z M7.01891892,16.9261261 C4.97567568,16.9261261 3.32342342,15.2738739 3.32342342,13.2306306 C3.32342342,11.1873874 4.97567568,9.53513514 7.01891892,9.53513514 C8.55765766,9.53513514 9.93243243,10.4873874 10.4747748,11.9252252 C9.74954955,10.9918919 8.41261261,10.8279279 7.47927928,11.5468468 C6.54594595,12.2657658 6.38198198,13.609009 7.1009009,14.5423423 C7.81981982,15.4756757 9.16306306,15.6396396 10.0963964,14.9207207 C10.2351351,14.8135135 10.3612613,14.6873874 10.4684685,14.5486486 C9.92612613,15.9801802 8.55135135,16.9261261 7.01891892,16.9261261 Z" id="Shape"/><path d="M7.81981982,6.31891892 L9.57927928,3.57567568 C10.5378378,3.77747748 11.4774775,3.15945946 11.6792793,2.2009009 C11.8810811,1.24234234 11.2630631,0.302702703 10.3045045,0.100900901 C9.34594595,-0.100900901 8.40630631,0.517117117 8.2045045,1.47567568 C8.0972973,1.97387387 8.21711712,2.4972973 8.51981982,2.9009009 L6.33783784,6.30630631 C2.5036036,6.68468468 -0.29009009,10.0963964 0.0882882883,13.9243243 C0.466666667,17.7522523 3.87837838,20.5522523 7.70630631,20.1738739 C11.5342342,19.7954955 14.3342342,16.3837838 13.9558559,12.5558559 C13.6279279,9.28918919 11.0738739,6.69099099 7.81981982,6.31891892 Z M7.01891892,16.9261261 C4.97567568,16.9261261 3.32342342,15.2738739 3.32342342,13.2306306 C3.32342342,11.1873874 4.97567568,9.53513514 7.01891892,9.53513514 C8.55765766,9.53513514 9.93243243,10.4873874 10.4747748,11.9252252 C9.74954955,10.9918919 8.41261261,10.8279279 7.47927928,11.5468468 C6.54594595,12.2657658 6.38198198,13.609009 7.1009009,14.5423423 C7.81981982,15.4756757 9.16306306,15.6396396 10.0963964,14.9207207 C10.2351351,14.8135135 10.3612613,14.6873874 10.4684685,14.5486486 C9.92612613,15.9801802 8.55135135,16.9261261 7.01891892,16.9261261 Z" id="Shape"/></g></g></svg>