<svg xmlns:xlink="http://www.w3.org/1999/xlink" height="32" version="1.1" viewBox="0 0 32 32" width="32" xmlns="http://www.w3.org/2000/svg"><title>icon/stq</title><desc>Created with Sketch.</desc><defs><linearGradient id="linearGradient-1" x1="50%" x2="50%" y1="0%" y2="100%"><stop offset="0%" stop-color="#FFF" stop-opacity=".5"/><stop offset="100%" stop-color="#000" stop-opacity=".5"/></linearGradient><circle cx="15" cy="15" id="path-2" r="15"/><filter filterUnits="objectBoundingBox" height="111.7%" id="filter-3" width="111.7%" x="-5.8%" y="-4.2%"><feOffset dx="0" dy=".5" in="SourceAlpha" result="shadowOffsetOuter1"/><feGaussianBlur in="shadowOffsetOuter1" result="shadowBlurOuter1" stdDeviation=".5"/><feComposite in="shadowBlurOuter1" in2="SourceAlpha" operator="out" result="shadowBlurOuter1"/><feColorMatrix in="shadowBlurOuter1" type="matrix" values="0 0 0 0 0 0 0 0 0 0 0 0 0 0 0 0 0 0 0.199473505 0"/></filter></defs><g fill="none" fill-rule="evenodd" id="icon/stq" stroke="none" stroke-width="1"><g fill-rule="nonzero" id="Group" transform="translate(1.000000, 0.000000)"><g id="Oval"><use fill="#000" fill-opacity="1" filter="url(#filter-3)" xlink:href="#path-2"/><use fill="#2DC4E7" fill-rule="evenodd" xlink:href="#path-2"/><use style="mix-blend-mode:soft-light" fill="url(#linearGradient-1)" fill-rule="evenodd" xlink:href="#path-2"/><circle cx="15" cy="15" r="14.5" stroke="#000" stroke-linejoin="square" stroke-opacity=".097" stroke-width="1"/></g></g><g fill="#FFF" fill-rule="nonzero" id="Storiqa-(STQ)" transform="translate(6.000000, 9.000000)"><path d="M0.139285714,0.0321428571 C1.10357143,0.0321428571 2.1,-0.0321428571 3.06428571,0.0535714286 C3.49285714,0.535714286 3.58928571,1.21071429 3.92142857,1.76785714 C8.25,1.78928571 12.6,1.76785714 16.9285714,1.76785714 C17.25,1.78928571 17.6464286,1.8 17.8071429,2.12142857 C18,2.475 17.8607143,2.89285714 17.6785714,3.21428571 C16.8,4.70357143 15.9642857,6.21428571 15.1071429,7.71428571 C14.7857143,8.25 14.5714286,8.85 14.0892857,9.26785714 C13.6928571,9.6 13.1464286,9.62142857 12.6428571,9.62142857 L6.64285714,9.62142857 C6.32142857,9.62142857 5.97857143,9.58928571 5.78571429,9.33214286 C5.16428571,8.63571429 4.83214286,7.74642857 4.425,6.93214286 C3.71785714,5.51785714 3.03214286,4.10357143 2.35714286,2.67857143 C2.21785714,2.35714286 2.04642857,2.06785714 1.88571429,1.76785714 C1.31785714,1.76785714 0.75,1.76785714 0.192857143,1.74642857 C0.0857142857,1.17857143 0.0857142857,0.6 0.139285714,0.0321428571 Z M6.9,10.7785714 C7.32857143,10.6714286 7.78928571,10.6714286 8.22857143,10.7571429 C8.72142857,10.8642857 9.15,11.2392857 9.26785714,11.7321429 C9.39642857,12.3 9.39642857,12.9107143 9.17142857,13.4571429 C8.95714286,13.95 8.42142857,14.1857143 7.91785714,14.2285714 C7.33928571,14.2714286 6.675,14.2285714 6.24642857,13.8 C5.78571429,13.2857143 5.78571429,12.5357143 5.88214286,11.8928571 C5.94642857,11.3571429 6.375,10.8964286 6.9,10.7785714 Z M12.2571429,10.7785714 C12.7928571,10.6607143 13.3714286,10.6714286 13.8857143,10.8642857 C14.3785714,11.0678571 14.6357143,11.6035714 14.6785714,12.1071429 C14.7428571,12.6964286 14.6785714,13.3714286 14.25,13.8214286 C13.8535714,14.1964286 13.275,14.25 12.75,14.2392857 C12.2357143,14.2178571 11.6785714,14.025 11.4107143,13.5428571 C11.1535714,13.0178571 11.0892857,12.4285714 11.2178571,11.8607143 C11.325,11.3357143 11.7321429,10.8964286 12.2571429,10.7785714 Z" id="Shape"/></g></g></svg>