<svg xmlns:xlink="http://www.w3.org/1999/xlink" height="32" viewBox="0 0 32 32" width="32" xmlns="http://www.w3.org/2000/svg"><defs><linearGradient id="vrc-c" x1="50%" x2="50%" y1="0%" y2="100%"><stop offset="0%" stop-color="#FFF" stop-opacity=".5"/><stop offset="100%" stop-opacity=".5"/></linearGradient><circle cx="16" cy="15" id="vrc-b" r="15"/><filter filterUnits="objectBoundingBox" height="111.7%" id="vrc-a" width="111.7%" x="-5.8%" y="-4.2%"><feOffset dy=".5" in="SourceAlpha" result="shadowOffsetOuter1"/><feGaussianBlur in="shadowOffsetOuter1" result="shadowBlurOuter1" stdDeviation=".5"/><feComposite in="shadowBlurOuter1" in2="SourceAlpha" operator="out" result="shadowBlurOuter1"/><feColorMatrix in="shadowBlurOuter1" values="0 0 0 0 0 0 0 0 0 0 0 0 0 0 0 0 0 0 0.199473505 0"/></filter><path d="M20.264794,7 L25,7 L15.9998414,25 L7,7 L11.7037236,7 L16.0314031,16.112616 L20.264794,7 Z M15.9998414,11.9589327 C15.2119885,11.9589327 14.573221,11.3027794 14.573221,10.4937028 C14.573221,9.68462624 15.2119885,9.02847294 15.9998414,9.02847294 C16.787615,9.02847294 17.4266997,9.68462624 17.4266997,10.4937028 C17.4266997,11.3027794 16.787615,11.9589327 15.9998414,11.9589327 Z M22.4647552,15.9999186 C23.252846,15.9999186 23.8915342,16.6559904 23.8914549,17.4648228 C23.8914549,18.2740622 23.252846,18.9301341 22.4647552,18.9301341 C21.6770609,18.9301341 21.0378176,18.2740622 21.0378176,17.4648228 C21.0378176,16.6559904 21.6769816,15.9999186 22.4647552,15.9999186 Z" id="vrc-e"/><filter filterUnits="objectBoundingBox" height="119.4%" id="vrc-d" width="119.4%" x="-9.7%" y="-6.9%"><feOffset dy=".5" in="SourceAlpha" result="shadowOffsetOuter1"/><feGaussianBlur in="shadowOffsetOuter1" result="shadowBlurOuter1" stdDeviation=".5"/><feColorMatrix in="shadowBlurOuter1" values="0 0 0 0 0 0 0 0 0 0 0 0 0 0 0 0 0 0 0.204257246 0"/></filter></defs><g fill="none" fill-rule="evenodd"><use fill="#000" filter="url(#vrc-a)" xlink:href="#vrc-b"/><use fill="#418BCA" xlink:href="#vrc-b"/><use style="mix-blend-mode:soft-light" fill="url(#vrc-c)" xlink:href="#vrc-b"/><circle cx="16" cy="15" r="14.5" stroke="#000" stroke-opacity=".097"/><g fill-rule="nonzero"><use fill="#000" filter="url(#vrc-d)" xlink:href="#vrc-e"/><use fill="#FFF" fill-rule="evenodd" xlink:href="#vrc-e"/></g></g></svg>