<svg xmlns:xlink="http://www.w3.org/1999/xlink" height="32" version="1.1" viewBox="0 0 32 32" width="32" xmlns="http://www.w3.org/2000/svg"><title>icon/xmo</title><desc>Created with Sketch.</desc><defs><linearGradient id="linearGradient-1" x1="50%" x2="50%" y1="0%" y2="100%"><stop offset="0%" stop-color="#FFF" stop-opacity=".5"/><stop offset="100%" stop-color="#000" stop-opacity=".5"/></linearGradient><circle cx="15" cy="15" id="path-2" r="15"/><filter filterUnits="objectBoundingBox" height="111.7%" id="filter-3" width="111.7%" x="-5.8%" y="-4.2%"><feOffset dx="0" dy=".5" in="SourceAlpha" result="shadowOffsetOuter1"/><feGaussianBlur in="shadowOffsetOuter1" result="shadowBlurOuter1" stdDeviation=".5"/><feComposite in="shadowBlurOuter1" in2="SourceAlpha" operator="out" result="shadowBlurOuter1"/><feColorMatrix in="shadowBlurOuter1" type="matrix" values="0 0 0 0 0 0 0 0 0 0 0 0 0 0 0 0 0 0 0.199473505 0"/></filter></defs><g fill="none" fill-rule="evenodd" id="icon/xmo" stroke="none" stroke-width="1"><g fill-rule="nonzero" id="Group" transform="translate(1.000000, 0.000000)"><g id="Oval"><use fill="#000" fill-opacity="1" filter="url(#filter-3)" xlink:href="#path-2"/><use fill="#F60" fill-rule="evenodd" xlink:href="#path-2"/><use style="mix-blend-mode:soft-light" fill="url(#linearGradient-1)" fill-rule="evenodd" xlink:href="#path-2"/><circle cx="15" cy="15" r="14.5" stroke="#000" stroke-linejoin="square" stroke-opacity=".097" stroke-width="1"/></g></g><g fill="#FFF" fill-rule="nonzero" id="Monero-Original-(XMO)" transform="translate(5.000000, 4.000000)"><path d="M22,11 C22,17.0757812 17.0757812,22 11,22 C4.92421875,22 0,17.0757812 0,11 C0,8.5421875 0.8078125,6.2734375 2.165625,4.44296875 L3.96171875,6.2390625 C3.0078125,7.63984375 2.50078125,9.2984375 2.50078125,11 C2.50078125,15.6835938 6.3078125,19.490625 10.9914062,19.490625 C15.675,19.490625 19.4820312,15.6835938 19.4820312,11 C19.4820312,9.28984375 18.9664062,7.63984375 18.0210937,6.2390625 L19.8171875,4.44296875 C21.1921875,6.2734375 22,8.5421875 22,11" id="Shape"/><path d="M17.084375,11 C17.084375,14.3601563 14.3515625,17.084375 11,17.084375 C7.6484375,17.084375 4.915625,14.3601563 4.915625,11 C4.915625,9.94296875 5.190625,8.903125 5.71484375,7.98359375 L11,13.26875 L16.2851562,7.98359375 C16.809375,8.903125 17.084375,9.94296875 17.084375,11" id="Shape"/><path d="M18.1929688,2.68125 L11,9.865625 L5.5171875,4.39140625 L3.80703125,2.68125 C5.73203125,1.00546875 8.25,0 11,0 C13.75,0 16.259375,1.00546875 18.1929688,2.68125" id="Shape"/></g></g></svg>