<svg xmlns:xlink="http://www.w3.org/1999/xlink" height="32" version="1.1" viewBox="0 0 32 32" width="32" xmlns="http://www.w3.org/2000/svg"><title>icon/xrp</title><desc>Created with Sketch.</desc><defs><linearGradient id="linearGradient-1" x1="50%" x2="50%" y1="0%" y2="100%"><stop offset="0%" stop-color="#FFF" stop-opacity=".5"/><stop offset="100%" stop-color="#000" stop-opacity=".5"/></linearGradient><circle cx="15" cy="15" id="path-2" r="15"/><filter filterUnits="objectBoundingBox" height="111.7%" id="filter-3" width="111.7%" x="-5.8%" y="-4.2%"><feOffset dx="0" dy=".5" in="SourceAlpha" result="shadowOffsetOuter1"/><feGaussianBlur in="shadowOffsetOuter1" result="shadowBlurOuter1" stdDeviation=".5"/><feComposite in="shadowBlurOuter1" in2="SourceAlpha" operator="out" result="shadowBlurOuter1"/><feColorMatrix in="shadowBlurOuter1" type="matrix" values="0 0 0 0 0 0 0 0 0 0 0 0 0 0 0 0 0 0 0.199473505 0"/></filter></defs><g fill="none" fill-rule="evenodd" id="icon/xrp" stroke="none" stroke-width="1"><g fill-rule="nonzero" id="Group" transform="translate(1.000000, 0.000000)"><g id="Oval"><use fill="#000" fill-opacity="1" filter="url(#filter-3)" xlink:href="#path-2"/><use fill="#23292F" fill-rule="evenodd" xlink:href="#path-2"/><use style="mix-blend-mode:soft-light" fill="url(#linearGradient-1)" fill-rule="evenodd" xlink:href="#path-2"/><circle cx="15" cy="15" r="14.5" stroke="#000" stroke-linejoin="square" stroke-opacity=".097" stroke-width="1"/></g></g><g fill="#FFF" fill-rule="nonzero" id="XRP-(XRP)" transform="translate(7.000000, 8.000000)"><path d="M15.3632812,0 L17.9648438,0 L12.5507812,5.36132812 C10.5890625,7.30195312 7.4109375,7.30195312 5.44921875,5.36132812 L0.031640625,0 L2.63671875,0 L6.75,4.07109375 C7.99101562,5.3015625 10.0054688,5.3015625 11.2464844,4.07109375 L15.3632812,0 Z" id="Vector"/><path d="M2.60507812,14.90625 L0,14.90625 L5.44921875,9.51328125 C7.4109375,7.57265625 10.5890625,7.57265625 12.5507812,9.51328125 L18,14.90625 L15.3949219,14.90625 L11.25,10.8 C10.0089844,9.56953125 7.99453125,9.56953125 6.75351562,10.8 L2.60507812,14.90625 Z" id="Vector_2"/></g></g></svg>