<svg xmlns:xlink="http://www.w3.org/1999/xlink" height="32" viewBox="0 0 32 32" width="32" xmlns="http://www.w3.org/2000/svg"><defs><linearGradient id="zel-c" x1="50%" x2="50%" y1="0%" y2="100%"><stop offset="0%" stop-color="#FFF" stop-opacity=".5"/><stop offset="100%" stop-opacity=".5"/></linearGradient><circle cx="16" cy="15" id="zel-b" r="15"/><filter filterUnits="objectBoundingBox" height="111.7%" id="zel-a" width="111.7%" x="-5.8%" y="-4.2%"><feOffset dy=".5" in="SourceAlpha" result="shadowOffsetOuter1"/><feGaussianBlur in="shadowOffsetOuter1" result="shadowBlurOuter1" stdDeviation=".5"/><feComposite in="shadowBlurOuter1" in2="SourceAlpha" operator="out" result="shadowBlurOuter1"/><feColorMatrix in="shadowBlurOuter1" values="0 0 0 0 0 0 0 0 0 0 0 0 0 0 0 0 0 0 0.199473505 0"/></filter><path d="M5,14.6153846 L9.49462366,12.0769231 L13.9892473,14.6153846 L13.9892473,19.4615385 L9.49462366,22 L5,19.4615385 L5,14.6153846 Z M18.0107527,14.6153846 L22.5053763,12.0769231 L27,14.6153846 L27,19.4615385 L22.5053763,22 L18.0107527,19.4615385 L18.0107527,14.6153846 Z M17.5376344,18.8255688 L15.9605735,19.6923077 L14.4623656,18.8689057 L14.4623656,14.2307692 L10.3620072,11.9149798 L10.3620072,10.2307692 L15.9605735,7 L21.5591398,10.2307692 L21.5591398,11.9595142 L17.5376344,14.2307692 L17.5376344,18.8255688 Z" id="zel-e"/><filter filterUnits="objectBoundingBox" height="123.3%" id="zel-d" width="115.9%" x="-8%" y="-8.3%"><feOffset dy=".5" in="SourceAlpha" result="shadowOffsetOuter1"/><feGaussianBlur in="shadowOffsetOuter1" result="shadowBlurOuter1" stdDeviation=".5"/><feColorMatrix in="shadowBlurOuter1" values="0 0 0 0 0 0 0 0 0 0 0 0 0 0 0 0 0 0 0.204257246 0"/></filter></defs><g fill="none" fill-rule="evenodd"><g fill-rule="nonzero"><use fill="#000" filter="url(#zel-a)" xlink:href="#zel-b"/><use fill="#183C87" fill-rule="evenodd" xlink:href="#zel-b"/><use style="mix-blend-mode:soft-light" fill="url(#zel-c)" fill-rule="evenodd" xlink:href="#zel-b"/><circle cx="16" cy="15" r="14.5" stroke="#000" stroke-linejoin="square" stroke-opacity=".097"/></g><use fill="#000" filter="url(#zel-d)" xlink:href="#zel-e"/><use fill="#FFF" xlink:href="#zel-e"/></g></svg>